<svg xmlns="http://www.w3.org/2000/svg" width="720" height="640" viewBox="0 0 720 640" fill="none">
  <defs>
    <linearGradient id="paper" x1="0" y1="0" x2="1" y2="1">
      <stop offset="0" stop-color="#ffffff"/>
      <stop offset="1" stop-color="#f3eef2"/>
    </linearGradient>
    <linearGradient id="shadow" x1="0" y1="0" x2="0" y2="1">
      <stop offset="0" stop-color="#e2c7d3" stop-opacity="0.6"/>
      <stop offset="1" stop-color="#b899a8" stop-opacity="0.35"/>
    </linearGradient>
  </defs>
  <g transform="translate(120 90)">
    <rect x="36" y="30" width="432" height="470" rx="28" fill="url(#shadow)"/>
    <rect x="0" y="0" width="432" height="470" rx="28" fill="url(#paper)" stroke="#f4dfe8" stroke-width="4"/>
    <rect x="0" y="0" width="432" height="80" rx="28" fill="#ffffff"/>
    <rect x="0" y="64" width="432" height="4" fill="#f0d4e1"/>
    <g fill="#f18dad">
      <rect x="48" y="20" width="14" height="26" rx="7"/>
      <rect x="112" y="20" width="14" height="26" rx="7"/>
      <rect x="176" y="20" width="14" height="26" rx="7"/>
      <rect x="240" y="20" width="14" height="26" rx="7"/>
      <rect x="304" y="20" width="14" height="26" rx="7"/>
      <rect x="368" y="20" width="14" height="26" rx="7"/>
    </g>
    <path d="M216 22c10-12 30-10 36 4 6 14-8 30-36 46-28-16-42-32-36-46 6-14 26-16 36-4z" fill="#f7b0c7"/>
    <g fill="#f08aa7">
      <circle cx="64" cy="138" r="6"/>
      <circle cx="124" cy="138" r="6"/>
      <circle cx="184" cy="138" r="6"/>
      <circle cx="244" cy="138" r="6"/>
      <circle cx="304" cy="138" r="6"/>
      <circle cx="364" cy="138" r="6"/>
      <circle cx="64" cy="188" r="6"/>
      <circle cx="124" cy="188" r="6"/>
      <circle cx="184" cy="188" r="6"/>
      <circle cx="244" cy="188" r="6"/>
      <circle cx="304" cy="188" r="6"/>
      <circle cx="364" cy="188" r="6"/>
      <circle cx="64" cy="238" r="6"/>
      <circle cx="124" cy="238" r="6"/>
      <circle cx="184" cy="238" r="6"/>
      <circle cx="244" cy="238" r="6"/>
      <circle cx="304" cy="238" r="6"/>
      <circle cx="364" cy="238" r="6"/>
      <circle cx="64" cy="288" r="6"/>
      <circle cx="124" cy="288" r="6"/>
      <circle cx="184" cy="288" r="6"/>
      <circle cx="244" cy="288" r="6"/>
      <circle cx="304" cy="288" r="6"/>
      <circle cx="364" cy="288" r="6"/>
      <circle cx="64" cy="338" r="6"/>
      <circle cx="124" cy="338" r="6"/>
      <circle cx="184" cy="338" r="6"/>
      <circle cx="244" cy="338" r="6"/>
      <circle cx="304" cy="338" r="6"/>
      <circle cx="64" cy="388" r="6"/>
    </g>
  </g>
</svg>
