<svg xmlns="http://www.w3.org/2000/svg" width="720" height="720" viewBox="0 0 720 720" fill="none">
  <defs>
    <linearGradient id="bg" x1="0" y1="0" x2="1" y2="1">
      <stop offset="0" stop-color="#ffd8e7"/>
      <stop offset="1" stop-color="#f5c4d6"/>
    </linearGradient>
    <linearGradient id="shirt" x1="0" y1="0" x2="1" y2="1">
      <stop offset="0" stop-color="#f5f2f4"/>
      <stop offset="1" stop-color="#e3d7dc"/>
    </linearGradient>
    <linearGradient id="tee" x1="0" y1="0" x2="1" y2="1">
      <stop offset="0" stop-color="#ff944d"/>
      <stop offset="1" stop-color="#f47c39"/>
    </linearGradient>
    <linearGradient id="jeans" x1="0" y1="0" x2="0.7" y2="1">
      <stop offset="0" stop-color="#4f6b85"/>
      <stop offset="1" stop-color="#31465e"/>
    </linearGradient>
    <linearGradient id="hair" x1="0" y1="0" x2="1" y2="1">
      <stop offset="0" stop-color="#2f1c1b"/>
      <stop offset="1" stop-color="#1b1214"/>
    </linearGradient>
    <linearGradient id="skin" x1="0" y1="0" x2="1" y2="1">
      <stop offset="0" stop-color="#f8c7b0"/>
      <stop offset="1" stop-color="#f0ad93"/>
    </linearGradient>
  </defs>
  <rect width="720" height="720" rx="360" fill="url(#bg)"/>
  <g transform="translate(150 140)">
    <g>
      <path d="M95 220c6-54 34-92 84-110 36-12 70-12 102 6 30 17 48 44 52 84 6 52-12 112-34 140-20 24-50 40-82 42-40 2-74-16-94-44-26-34-36-80-28-118z" fill="url(#shirt)"/>
      <path d="M66 338c30-52 70-86 120-88 60-2 104 30 138 96 12 22 16 66 10 94H88c-20-30-24-74-22-102z" fill="#e1ccd7"/>
      <path d="M74 342c12-24 34-40 68-44 8-2 16-2 24-2 16 0 30 2 42 6 6 2 12 4 18 8-30 10-54 34-68 70-10 26-12 52-10 68H102c-14-24-18-56-10-86z" fill="#d6c2cd"/>
    </g>
    <g transform="translate(210 40)">
      <path d="M22 86c4-38 28-72 64-82 32-10 64 0 84 20 22 22 32 56 24 90-8 38-38 64-72 66-30 2-58-16-72-44-8-16-10-34-8-50z" fill="url(#skin)"/>
      <path d="M12 62c12-30 40-52 74-56 30-4 56 10 74 32 12 14 18 30 20 46-16-12-40-20-72-16-28 4-54 18-72 34-12 10-22 22-28 34-8-26-8-50 4-74z" fill="url(#hair)"/>
      <path d="M86 118c12-6 26-4 34 4" stroke="#d4877b" stroke-width="6" stroke-linecap="round"/>
      <path d="M58 102c8-6 20-6 28 0" stroke="#d4877b" stroke-width="6" stroke-linecap="round"/>
      <path d="M74 140c10 10 26 10 36 0" stroke="#d4746a" stroke-width="6" stroke-linecap="round"/>
    </g>
    <g transform="translate(330 60)">
      <path d="M16 88c2-36 24-68 56-80 26-10 52-8 76 6 28 18 44 50 42 88-2 40-24 72-58 86-30 12-64 4-84-22-20-26-30-54-32-78z" fill="url(#skin)"/>
      <path d="M10 62c8-28 30-52 64-58 34-6 64 6 84 30 12 14 18 32 20 52-20-14-46-22-76-18-28 4-52 18-72 36-10 10-18 20-24 30-8-24-10-48 4-72z" fill="url(#hair)"/>
      <path d="M54 126c10-6 22-6 30 0" stroke="#d4877b" stroke-width="6" stroke-linecap="round"/>
      <path d="M80 146c12 12 32 12 44 0" stroke="#d4746a" stroke-width="6" stroke-linecap="round"/>
    </g>
    <g>
      <path d="M218 250c30-12 64-10 96 8 18 10 36 28 52 52 16 24 28 52 36 84 8 30 10 60 6 80H196c-14-32-18-70-10-112 8-38 18-66 32-80z" fill="url(#tee)"/>
      <path d="M246 316c8-14 22-28 42-36 20-8 42-6 62 4 28 14 52 44 66 90 8 26 8 56 0 78H260c-8-20-10-46-8-74 2-26 8-48 16-62z" fill="url(#jeans)" opacity="0.88"/>
      <path d="M160 274c12-10 30-18 50-18 20 0 38 8 50 20 10 10 18 24 24 44l-20 12c-16-26-34-38-56-38-22 0-40 10-56 30l-22-10c4-14 12-28 30-40z" fill="url(#skin)"/>
      <path d="M360 256c18-6 40-4 58 6 22 12 38 34 50 60l-18 12c-18-26-36-38-56-40-22-2-42 10-58 32l-18-12c10-24 24-46 42-58z" fill="url(#skin)"/>
    </g>
    <g transform="translate(286 300)">
      <path d="M20 48c20-18 54-18 74 0 12 12 14 28 12 44-2 16-12 30-28 38-18 10-40 10-58 0-14-8-24-22-26-38-2-18 4-34 26-44z" fill="#f2558f"/>
      <path d="M26 86c10-12 24-14 38-6" stroke="#ff9abb" stroke-width="6" stroke-linecap="round"/>
      <path d="M40 70c8-8 20-8 28 0" stroke="#ffc4d7" stroke-width="6" stroke-linecap="round"/>
      <path d="M48 94c12 6 24 6 36 0" stroke="#ff7ea5" stroke-width="6" stroke-linecap="round"/>
    </g>
  </g>
</svg>
