<svg xmlns="http://www.w3.org/2000/svg" width="720" height="560" viewBox="0 0 720 560" fill="none">
  <defs>
    <radialGradient id="petal" cx="0.5" cy="0.4" r="0.65">
      <stop offset="0" stop-color="#ffd4e1"/>
      <stop offset="1" stop-color="#f2688c"/>
    </radialGradient>
    <radialGradient id="petal-deep" cx="0.5" cy="0.45" r="0.7">
      <stop offset="0" stop-color="#ffb3c9"/>
      <stop offset="1" stop-color="#ec4f79"/>
    </radialGradient>
    <linearGradient id="leaf" x1="0" y1="0" x2="1" y2="1">
      <stop offset="0" stop-color="#5ab883"/>
      <stop offset="1" stop-color="#2e7a4f"/>
    </linearGradient>
    <linearGradient id="candy" x1="0" y1="0" x2="1" y2="1">
      <stop offset="0" stop-color="#f45c6c"/>
      <stop offset="1" stop-color="#c91d3a"/>
    </linearGradient>
  </defs>
  <g opacity="0.25">
    <ellipse cx="470" cy="455" rx="150" ry="34" fill="#c24668"/>
  </g>
  <g>
    <rect x="160" y="420" width="96" height="54" rx="14" fill="url(#candy)"/>
    <rect x="176" y="432" width="64" height="10" rx="5" fill="#ff9aac" opacity="0.7"/>
    <rect x="176" y="450" width="48" height="8" rx="4" fill="#ff9aac" opacity="0.45"/>
  </g>
  <g transform="translate(420 270)">
    <ellipse cx="150" cy="110" rx="86" ry="40" fill="url(#leaf)" transform="rotate(-20 150 110)"/>
    <ellipse cx="120" cy="150" rx="70" ry="32" fill="url(#leaf)" transform="rotate(15 120 150)"/>
    <rect x="10" y="190" width="22" height="140" rx="11" fill="#377a53"/>
    <g transform="translate(0 0)">
      <circle cx="0" cy="0" r="110" fill="url(#petal)"/>
      <ellipse cx="-70" cy="-10" rx="54" ry="36" fill="#ff9bb7" transform="rotate(-20 -70 -10)"/>
      <ellipse cx="60" cy="-30" rx="60" ry="40" fill="#ff8dad" transform="rotate(15 60 -30)"/>
      <circle cx="0" cy="0" r="82" fill="#ff8cad"/>
      <ellipse cx="-40" cy="10" rx="48" ry="30" fill="#f8789d" transform="rotate(-15 -40 10)"/>
      <ellipse cx="38" cy="18" rx="46" ry="28" fill="#f56d95" transform="rotate(12 38 18)"/>
      <circle cx="0" cy="0" r="56" fill="url(#petal-deep)"/>
      <circle cx="0" cy="0" r="32" fill="#f0547f"/>
      <path d="M-6 -8c14-10 36-10 46 4" stroke="#ffb0c5" stroke-width="6" stroke-linecap="round"/>
      <path d="M-18 6c10-6 30-8 44 8" stroke="#ff9ab5" stroke-width="5" stroke-linecap="round"/>
    </g>
  </g>
</svg>
